# ProBuilder 4.0.5
# https://unity3d.com/unity/features/worldbuilding/probuilder
# 9/19/2020 7:01:46 AM

mtllib ./AudioRoomTestMap.mtl
o AudioRoomTestMap

g a1-Merged
v -30.99997 7.125 53.76
v -33.99997 7.125 53.76002
v -30.99997 7.375 53.76
v -33.99997 7.375 53.76002
v -30.99997 7.375 53.26
v -33.99997 7.375 53.26002
v -30.99997 7.625 53.26
v -33.99997 7.625 53.26002
v -30.99998 7.625 52.76
v -33.99998 7.625 52.76002
v -30.99998 7.875 52.76
v -33.99998 7.875 52.76002
v -30.99998 7.875 52.26
v -33.99998 7.875 52.26002
v -30.99998 8.125 52.26
v -33.99998 8.125 52.26002
v -30.99998 8.125 51.76
v -33.99998 8.125 51.76001
v -30.99998 8.375 51.76
v -33.99998 8.375 51.76001
v -30.99998 8.375 51.26
v -33.99998 8.375 51.26001
v -30.99998 8.625 51.26
v -33.99998 8.625 51.26001
v -30.99998 8.625 50.76
v -33.99999 8.625 50.76001
v -30.99998 8.875 50.76
v -33.99999 8.875 50.76001
v -30.99999 8.875 50.26
v -33.99999 8.875 50.26001
v -30.99999 9.125 50.26
v -33.99999 9.125 50.26001
v -30.99999 9.125 49.76
v -33.99999 9.125 49.76001
v -30.99999 9.375 49.76
v -33.99999 9.375 49.76001
v -30.99999 9.375 49.26
v -34 9.375 49.26001
v -30.99999 9.625 49.26
v -34 9.625 49.26001
v -31 9.625 48.76
v -34 9.625 48.76001
v -31 9.875 48.76
v -34 9.875 48.76001
v -31 9.875 48.26
v -34 9.875 48.26001
v -31 10.125 48.26
v -34 10.125 48.26001
v -31 10.125 47.76
v -34 10.125 47.76001
v -31 10.125 44.92729
v -34 10.125 44.92731
v -40.12012 10.1251 44.92774
v -24.87988 10.1251 44.92773
v -40.12012 10.1252 24.3252
v -24.87988 10.1252 24.32519
v -24.87988 19.25005 24.32519
v -24.87988 19.24995 44.92773
v -40.12012 19.24995 44.92774
v -40.12012 19.25005 24.3252
v -31.00005 23.73242 44.92768
v -31.0001 10.1251 44.92773
v -33.9999 10.1251 44.92774
v -33.99995 23.73242 44.92764
v -31 13.875 44.92763
v -34 13.875 44.92753
v -26.99984 6.625 57.69026
v -26.99984 6.625 53.74005
v -26.99984 6.875099 57.69026
v -26.99984 6.875099 53.74005
v -30 6.625 57.69026
v -30 6.875099 57.69026
v -30 6.875099 53.74005
v -30 6.625 53.74005
v -27.34956 7.125099 54.20053
v -30 7.125099 54.20053
v -27.34956 7.125099 57.2298
v -30 7.125099 57.2298
v -30 6.875177 54.20053
v -27.34956 6.875177 54.20053
v -27.34956 6.875177 57.2298
v -30 6.875177 57.2298
v -30.125 7.1252 57.22949
v -30.125 7.125074 53.75977
v -34 7.125301 57.22949
v -34 7.125301 53.74023
v -29.62499 11 56.9502
v -29.62506 11.25 57.22949
v -29.62494 7.125 56.9502
v -29.62494 7.125 57.2298
v -29.62492 11.25 54.2002
v -29.62492 11 54.4502
v -29.62484 7.125 54.4502
v -29.62474 7.125 54.2002
v -30.3747 7.125 54.4502
v -30.37478 11 54.4502
v -30.37485 11 56.9502
v -30.3748 7.125 56.9502
v -30.37494 7.125 57.2298
v -30.37503 11.25 57.22949
v -30.37496 11.25 54.2002
v -30.37474 7.125 54.2002
v -29.875 7.1252 54.4502
v -29.875 7.1252 56.9502
v -30 7.144724 54.4502
v -30 7.144724 56.9502
v -30.125 7.125301 56.9502
v -30.125 7.125301 54.4502
v -34 13.875 57.22949
v -33.9999 7.125301 44.92773
v -33.9999 13.875 44.92773
v -30.3749 7.125301 57.22949
v -30.3749 13.875 57.22949
v -30.3749 13.875 54.2002
v -31 7.12505 53.74023
v -31 13.87505 53.74034
v -30.125 13.87495 53.74034
v -30.12513 11.25 54.2002
v -30.12503 13.875 54.19539
v -30.125 7.125074 54.21001
v -31 7.12505 44.92779
v -30.125 11.875 53.74023
v -30.125 11.875 57.22949
v -34 11.8749 53.74023
v -34 11.8749 57.22949
v -34 13.87485 53.74023
v 0 3.25 -3.75
v 0 3.25 13.2501
v -2 3.25 -3.75
v -2 3.25 13.2501
v -2 6.250099 13.25
v -2 6.250099 -3.75
v 0 6.250099 -3.75
v 0 6.250099 13.25
v -1.4999 6.750099 13.25
v -1.4999 6.750099 -3.75
v -0.5001001 6.750099 -3.75
v -0.5001001 6.750099 13.25
v -1 7.000031 -3.75
v -1 7 13.25007
v 0 3.25 34.20026
v -2 3.25 34.20026
v 0 3.375099 13.25
v 0 3.3752 34.2002
v -2 3.3752 34.2002
v -2 3.375099 13.25
v -2.1249 3.3752 34.2002
v -2.1249 3.375099 13.25
v 0.1248999 3.375099 13.25
v 0.1248999 3.3752 34.2002
v -2.1249 3.250299 34.2002
v -2.1249 3.2502 13.25
v 0.1248999 3.2502 13.25
v 0.1248999 3.250299 34.2002
v -1.999929 7 13.25005
v -1.499829 7 13.25
v -0.5001707 7 13.25
v -3.528595E-05 7 13.25005
v -1.999983 19.25 13.25012
v 0 19.25 13.25012
v 5.999876 19.25 13.2501
v 5.999964 3.25 13.25007
v -7.9999 19.25 13.25005
v -7.999975 3.25 13.25005
v -7.999975 3.25 34.20026
v -7.999925 19.25 34.20026
v 5.999987 3.25 34.20024
v 5.999937 19.25 34.20024
v -2 7.000099 -3.75
v 0 7.000099 -3.75
v -1.716614E-05 19.25 34.20023
v -1.999965 19.25 34.20023
v -3.528595E-05 7 34.2002
v -1.999929 7 34.2002
v 0 3.25 51.2401
v -2 3.25 51.2401
v -2 6.250099 51.24001
v -2 6.250099 34.2002
v 0 6.250099 34.2002
v 0 6.250099 51.24001
v -1.4999 6.750099 51.24001
v -1.4999 6.750099 34.2002
v -0.5001001 6.750099 34.2002
v -0.5001001 6.750099 51.24001
v -1 7 34.20012
v -1 7 51.24008
v -1.999929 7 51.24005
v -1.499829 7 51.24001
v -0.5001707 7 51.24001
v -3.528595E-05 7 51.24005
v -1.999983 19.25 51.24013
v 0 19.25 51.24013
v 5.999876 19.25 51.2401
v 5.999964 3.25 51.24008
v -5.49996 19.25 51.24005
v -5.500036 3.25 51.24005
v 5.999987 3.25 60.19025
v 5.999937 19.25 60.19025
v -0.5001707 7 34.2002
v -1.499829 7 34.2002
v -5.500034 3.25 60.19026
v -5.499985 19.25 60.19026
v -21.37494 6.625 51.24005
v -21.37494 6.625 60.19026
v -21.37489 19.25 60.19026
v -21.37486 19.25 51.24005
v -29.99984 6.625 51.24005
v -29.99984 6.625 60.19026
v -29.99979 19.25 60.19026
v -29.99976 19.25 51.24005
v -29.99979 19.25 57.22949
v -29.99984 6.625 57.22949
v -29.99984 6.625 54.2002
v -29.99976 19.25 54.2002
v -29.99974 11.25 54.2002
v -29.99964 11.25 57.22949

vt 0.2500305 0
vt -2.749969 0
vt 0.2500305 0.25
vt -2.749969 0.25
vt 0.2500267 0.5000019
vt -2.749973 0.4999866
vt -2.749969 0.5
vt 0.2500267 1.000002
vt -2.749973 0.9999866
vt 0.2500286 0.75
vt -2.749975 0.75
vt 0.2500305 1.500002
vt -2.749969 1.499987
vt -2.749971 1
vt 0.2500267 2.000002
vt -2.749973 1.999994
vt 0.2500286 1.25
vt -2.749975 1.25
vt 0.2500267 2.500003
vt -2.749973 2.499995
vt -2.749973 1.5
vt 0.2500305 3.000003
vt -2.749973 2.999995
vt 0.2500286 1.75
vt -2.749975 1.75
vt 0.2500267 3.500003
vt -2.749973 3.499995
vt -2.749975 2
vt 0.2500305 4.000003
vt -2.749969 3.999995
vt 0.2500248 2.25
vt -2.749975 2.25
vt 0.2500305 4.500003
vt -2.749973 4.499995
vt -2.749981 2.5
vt 0.2500267 5.000003
vt -2.749973 4.999995
vt 0.2500229 2.75
vt -2.749977 2.75
vt 0.2500305 5.500003
vt -2.749969 5.499995
vt -2.749977 3
vt 0.2500305 6.000003
vt -2.749973 5.999995
vt 0.2500458 8.832709
vt -2.749973 8.832694
vt -8.870071 8.832253
vt 6.37027 8.832267
vt -8.870071 29.43484
vt 6.37027 29.43486
vt -29.43481 3.000205
vt -8.832272 3.0001
vt -29.43481 12.12505
vt -8.83227 12.12495
vt 8.832254 3.0001
vt 29.43479 3.000197
vt 8.832256 12.12495
vt 29.4348 12.12505
vt -8.870092 3.000199
vt 6.370146 3.000196
vt -8.870092 12.12505
vt 6.370146 12.12505
vt -6.370045 12.12495
vt -6.370045 3.0001
vt -0.2498779 16.60742
vt -0.2498283 3.0001
vt 8.870117 3.0001
vt 8.870117 12.12495
vt 2.749901 3.0001
vt 2.74995 16.60742
vt -0.2498779 6.749956
vt 2.750072 16.60738
vt 2.750122 6.749956
vt -6.37027 29.4349
vt -6.37027 8.83231
vt 8.870071 29.43489
vt 8.870071 8.832293
vt -23.95024 3.75
vt -20.00003 3.75
vt -23.95024 4.0001
vt -20.00003 4.0001
vt -29.99984 3.749999
vt -29.99984 4.0001
vt -33 3.75
vt -33 4.000101
vt 29.99984 4.000101
vt 29.99984 3.75
vt 33 4.0001
vt 33 3.749999
vt 30.34956 20.46052
vt 33 20.46052
vt 30.34956 23.48979
vt 33 23.48979
vt 33 20.00072
vt 29.99984 20.00072
vt 33 20.46119
vt 30.34956 20.46119
vt 30.00072 20.00005
vt 30.00072 23.95026
vt 30.35044 20.46053
vt 30.35044 23.4898
vt 29.99984 23.94959
vt 33 23.94959
vt 30.34956 23.48912
vt 33 23.48912
vt 30.34956 4.000176
vt 33 4.2501
vt 30.34956 4.2501
vt -20.46052 4.000176
vt -23.48979 4.000176
vt -20.46052 4.2501
vt -23.48979 4.2501
vt -30.34956 4.000176
vt -30.34956 4.2501
vt -33 4.2501
vt 33.12511 23.48965
vt 33.12511 20.01992
vt 37.00011 23.48965
vt 37.00011 20.00039
vt -23.21829 8.125419
vt -23.49758 8.375419
vt -23.21829 4.250418
vt -23.49788 4.250418
vt -20.46176 8.376561
vt -23.49105 8.376561
vt -20.71176 8.126561
vt -23.21176 8.126561
vt -20.71084 8.125643
vt -20.71084 4.250642
vt -20.46084 8.375643
vt -20.46084 4.250642
vt -33.3747 4.25
vt -33.37478 8.125
vt -32.62484 4.25
vt -32.62492 8.125
vt 33.37485 8.125
vt 33.3748 4.25
vt 32.62498 8.125
vt 32.62494 4.25
vt -33.37494 4.248305
vt -33.37503 8.373304
vt -32.62494 4.248305
vt -32.62506 8.373304
vt 33.37503 23.48949
vt 33.37496 20.46019
vt 32.62506 23.48949
vt 32.62492 20.46019
vt 33.37495 8.375
vt 32.62492 8.375
vt -33.37478 20.71019
vt -33.37486 23.21019
vt -32.62492 20.71019
vt -32.62499 23.21019
vt 20.71116 8.149899
vt 23.21116 8.149899
vt 20.46116 8.399899
vt 23.49046 8.399899
vt 20.7051 4.250657
vt 20.7051 8.125657
vt 20.4551 4.250657
vt 20.4551 8.375657
vt 23.23123 8.125428
vt 23.23123 4.250427
vt 23.51052 8.375428
vt 23.51083 4.250427
vt 33.13708 20.71019
vt 33.13708 23.21019
vt 33.2636 20.71019
vt 33.2636 23.21019
vt -32.875 4.2502
vt -33.125 4.250301
vt -33 4.269724
vt 32.07957 23.21019
vt 32.07957 20.71019
vt 31.95308 23.21019
vt 31.95308 20.71019
vt 33.125 4.250301
vt 32.875 4.2502
vt 33 4.269724
vt -23.48979 11
vt -11.18803 4.2503
vt -11.18803 11
vt 37 4.2503
vt 37 11
vt 33.3749 11
vt 20.46099 10.99835
vt 23.49029 10.99835
vt 20.46099 8.373351
vt 23.49029 8.373351
vt -33.54521 4.250355
vt -32.67 4.25038
vt -33.54521 11.00036
vt -32.67043 11.00026
vt 33.12513 8.375
vt 33.12503 11
vt 20.00283 10.99996
vt 20.02225 4.250082
vt 20.45788 11.00001
vt 20.47251 4.250082
vt 20.00021 4.250049
vt 20.00032 11.00005
vt 11.18777 4.250051
vt 11.18787 11.00005
vt -33.12477 20.00023
vt -33.12477 23.48949
vt -36.99977 20.00023
vt -36.99977 23.48949
vt 33.125 8.999999
vt 37 8.9999
vt 33.125 10.99995
vt 37 10.99985
vt -33.99981 11.18789
vt -33.99981 20.00034
vt -36.99971 11.18773
vt 0 0
vt 0 17.0001
vt 2 0
vt 2 17.0001
vt -17.0001 -1.192093E-07
vt -17 3.0001
vt 0 3.0001
vt 17.0001 -1.192093E-07
vt 17 3.0001
vt 0.706824 17
vt 0.706821 0
vt 1.414004 17
vt 1.414001 0
vt -2.121179 0
vt -2.121176 17
vt -2.828359 0
vt -2.828356 17
vt -2.012501 0
vt -2.012498 17
vt -2.571397 0
vt -2.571381 17.00007
vt 0.2234361 17
vt 0.2234332 0
vt 0.7823215 17.00007
vt 0.7823321 0
vt -1.192093E-07 37.95026
vt 2.000004 37.95026
vt 37.95026 0
vt 17 0.1250987
vt 37.9502 0.1251998
vt -37.95026 -7.450581E-08
vt -37.9502 0.1251997
vt -17 0.125095
vt 2.1249 37.9502
vt 2.1249 17
vt -0.1249 17
vt -0.1249 37.9502
vt -2.001124 3.001225
vt -1.501024 3.501224
vt -2.001053 3.751124
vt -1.500953 3.751124
vt -0.5001001 3.500099
vt -0.5001707 3.75
vt -3.516674E-05 3.75
vt -1.497299 3.749999
vt -1.49737 3.500099
vt -0.9974699 3.749999
vt -0.50263 3.500099
vt -0.5027006 3.749999
vt -1.00253 3.749999
vt -1.999929 3.750103
vt -1.999982 16.0001
vt 0 16.0001
vt 5.999805 16.00003
vt 5.999893 2.670288E-05
vt -7.999689 16.00003
vt -1.999789 2.670288E-05
vt -7.999764 2.670288E-05
vt -37.95026 15.99998
vt -17.00005 15.99998
vt 17.00011 15.99997
vt 37.95024 15.99997
vt -2 0
vt -2 3.7501
vt 1.999996 17.0001
vt 7.999975 17.00005
vt 7.999978 37.95026
vt -5.999969 17.00007
vt -5.999988 37.95024
vt -5.999843 4.768372E-07
vt -5.99979 16
vt 7.999975 -8.096757E-05
vt 1.999965 15.99992
vt 7.999925 15.99992
vt 1.999929 3.750094
vt 1.999965 16.0001
vt 0 -0.03980637
vt 2 -0.03980637
vt 0.03980637 -1.192093E-07
vt 0.03980637 3.0001
vt -0.03980637 -1.192093E-07
vt -0.03980637 3.0001
vt 0.7068239 -0.03980637
vt 1.414001 -0.03980637
vt -2.121179 -0.03980637
vt -2.828359 -0.03980637
vt -2.012362 -0.03980637
vt -2.012359 17
vt -2.571248 -0.03988266
vt 0.2234361 17
vt 0.2234332 -0.03980637
vt 0.7823189 -0.03988266
vt -5.499599 16.00003
vt -5.499675 2.574921E-05
vt 25.95026 -3.242493E-05
vt 25.95026 15.99997
vt 0.5001001 3.500099
vt 0.5001707 3.75
vt 1.000006 3.75
vt 1.4999 3.500099
vt 2 3.0001
vt 1.499829 3.75
vt 0.999994 3.75
vt -5.999988 25.95024
vt 5.500036 25.95026
vt 5.500036 17.00005
vt 5.500036 16
vt 5.500086 0
vt 5.3798 17.00005
vt 5.379798 25.95026
vt 21.6095 17.00005
vt 21.6095 25.95026
vt 5.499985 16
vt 21.37494 3.375
vt 21.37489 16
vt -5.500036 0
vt -21.37486 16
vt -21.37494 3.375
vt 21.37494 17.00005
vt 21.37494 25.95026
vt 29.99984 17.00005
vt 29.99984 25.95026
vt 29.99984 3.375
vt 29.99979 16
vt -29.99976 16
vt -29.99984 3.375
vt -25.95026 15.99988
vt -25.95026 3.374882
vt -22.98949 15.99988
vt -22.98949 3.374882
vt -17.00005 3.374819
vt -19.96019 3.374819
vt -19.96019 15.99982
vt -19.95921 7.999714
vt -19.95921 15.99971
vt -22.98851 7.999714
vt -22.98851 15.99971

vn 5.086263E-06 0 1
vn 0 1 0
vn -1 0 0
vn 1 0 0
vn 7.479595E-06 0 -1
vn -4.819935E-12 -1 -4.814074E-06
vn 0.9999999 4.253965E-05 0.0003967285
vn -0.9999997 -0.0007461546 -2.899169E-05
vn -0.9999999 -3.620046E-05 0.0004085193
vn -0.9999998 -5.271217E-05 0.0006644508
vn -0.9999998 -1.279769E-05 -0.0006304808
vn 0.154318 0.9880213 0
vn -0.1535379 0.9881428 0
vn -0.02231587 -1.581999E-05 0.999751
vn -0.01115777 0.001430958 0.9998734
vn 3.261942E-07 0.002877736 0.9999959
vn -0.009616379 -0.0009150071 -0.9999067
vn -0.01923276 -0.001830014 -0.9998134
vn 0.707036 -0.7071776 0
vn -0.707036 -0.7071776 0
vn -0.447187 -0.8944405 0
vn 0.4471433 -0.8944623 0
vn 0.2079521 0.978139 -4.431596E-08

g a1-Merged_0
usemtl rock
f 156/259/1 135/260/1 140/261/1
f 138/262/1 157/263/1 140/264/1
f 199/312/5 183/311/5 185/313/5
f 182/314/5 200/316/5 185/317/5
f 4/4/1 2/2/1 1/1/1
f 1/1/1 3/3/1 4/4/1
f 6/6/2 4/2/2 3/1/2
f 3/1/2 5/5/2 6/6/2
f 8/7/1 6/4/1 5/3/1
f 5/3/1 7/5/1 8/7/1
f 10/9/2 8/6/2 7/5/2
f 7/5/2 9/8/2 10/9/2
f 12/11/1 10/7/1 9/5/1
f 9/5/1 11/10/1 12/11/1
f 14/13/2 12/9/2 11/8/2
f 11/8/2 13/12/2 14/13/2
f 16/14/1 14/11/1 13/10/1
f 13/10/1 15/8/1 16/14/1
f 18/16/2 16/13/2 15/12/2
f 15/12/2 17/15/2 18/16/2
f 20/18/1 18/14/1 17/8/1
f 17/8/1 19/17/1 20/18/1
f 22/20/2 20/16/2 19/15/2
f 19/15/2 21/19/2 22/20/2
f 24/21/1 22/18/1 21/17/1
f 21/17/1 23/12/1 24/21/1
f 26/23/2 24/20/2 23/19/2
f 23/19/2 25/22/2 26/23/2
f 28/25/1 26/21/1 25/12/1
f 25/12/1 27/24/1 28/25/1
f 30/27/2 28/23/2 27/22/2
f 27/22/2 29/26/2 30/27/2
f 32/28/1 30/25/1 29/24/1
f 29/24/1 31/15/1 32/28/1
f 34/30/2 32/27/2 31/26/2
f 31/26/2 33/29/2 34/30/2
f 36/32/1 34/28/1 33/15/1
f 33/15/1 35/31/1 36/32/1
f 38/34/2 36/30/2 35/29/2
f 35/29/2 37/33/2 38/34/2
f 40/35/1 38/32/1 37/31/1
f 37/31/1 39/19/1 40/35/1
f 42/37/2 40/34/2 39/33/2
f 39/33/2 41/36/2 42/37/2
f 44/39/1 42/35/1 41/19/1
f 41/19/1 43/38/1 44/39/1
f 46/41/2 44/37/2 43/36/2
f 43/36/2 45/40/2 46/41/2
f 48/42/1 46/39/1 45/38/1
f 45/38/1 47/22/1 48/42/1
f 50/44/2 48/41/2 47/40/2
f 47/40/2 49/43/2 50/44/2
f 69/80/4 67/78/4 68/79/4
f 68/79/4 70/81/4 69/80/4
f 71/84/1 67/82/1 69/83/1
f 69/83/1 72/85/1 71/84/1
f 73/88/5 70/86/5 68/87/5
f 68/87/5 74/89/5 73/88/5
f 77/92/2 75/90/2 76/91/2
f 76/91/2 78/93/2 77/92/2
f 80/97/2 70/95/2 73/94/2
f 73/94/2 79/96/2 80/97/2
f 81/101/2 69/99/2 70/98/2
f 70/98/2 80/100/2 81/101/2
f 82/105/2 72/103/2 69/102/2
f 69/102/2 81/104/2 82/105/2
f 75/108/5 80/106/5 79/88/5
f 79/88/5 76/107/5 75/108/5
f 78/115/1 82/85/1 81/113/1
f 81/113/1 77/114/1 78/115/1
f 131/220/4 130/219/4 129/215/4
f 129/215/4 132/221/4 131/220/4
f 133/221/3 127/215/3 128/222/3
f 128/222/3 134/223/3 133/221/3
f 135/226/19 131/224/19 132/225/19
f 132/225/19 136/227/19 135/226/19
f 137/230/20 133/228/20 134/229/20
f 134/229/20 138/231/20 137/230/20
f 139/234/21 137/232/21 138/233/21
f 138/233/21 140/235/21 139/234/21
f 140/238/22 135/236/22 136/237/22
f 136/237/22 139/239/22 140/238/22
f 155/254/1 131/252/1 135/253/1
f 135/253/1 156/255/1 155/254/1
f 157/257/1 138/256/1 134/221/1
f 134/221/1 158/258/1 157/257/1
f 159/266/1 155/265/1 158/258/1
f 158/258/1 160/267/1 159/266/1
f 162/269/1 161/268/1 160/267/1
f 160/267/1 128/215/1 162/269/1
f 130/271/1 159/266/1 163/270/1
f 163/270/1 164/272/1 130/271/1
f 166/273/4 165/245/4 164/219/4
f 164/219/4 163/274/4 166/273/4
f 161/275/3 162/222/3 167/242/3
f 167/242/3 168/276/3 161/275/3
f 168/285/5 167/284/5 141/215/5
f 141/215/5 171/267/5 168/285/5
f 172/287/5 142/217/5 165/286/5
f 165/286/5 166/288/5 172/287/5
f 171/267/5 173/258/5 174/289/5
f 174/289/5 172/290/5 171/267/5
f 177/220/4 176/219/4 142/293/4
f 142/293/4 178/294/4 177/220/4
f 179/296/3 141/295/3 175/222/3
f 175/222/3 180/223/3 179/296/3
f 181/226/19 177/224/19 178/297/19
f 178/297/19 182/298/19 181/226/19
f 183/300/20 179/299/20 180/229/20
f 180/229/20 184/231/20 183/300/20
f 185/303/21 183/301/21 184/302/21
f 184/302/21 186/235/21 185/303/21
f 186/238/22 181/304/22 182/305/22
f 182/305/22 185/306/22 186/238/22
f 173/258/5 179/221/5 183/311/5
f 183/311/5 199/312/5 173/258/5
f 200/316/5 182/314/5 178/315/5
f 178/315/5 174/289/5 200/316/5

g a1-Merged_1
usemtl walk
f 51/45/2 52/46/2 50/44/2 49/43/2
f 56/50/2 55/49/2 53/47/2 54/48/2
f 129/217/2 130/218/2 128/216/2 127/215/2
f 142/241/2 141/240/2 128/216/2 130/218/2
f 142/292/2 176/218/2 175/216/2 141/291/2
f 196/320/2 201/319/2 197/318/2 194/282/2
f 203/325/23 204/326/23 201/324/23 196/323/23
f 207/335/2 208/336/2 204/334/2 203/333/2

g a1-Merged_2
usemtl black
f 58/54/3 57/53/3 56/51/3 54/52/3
f 60/58/4 59/57/4 53/55/4 55/56/4
f 57/62/1 60/61/1 55/59/1 56/60/1
f 59/77/6 60/76/6 57/74/6 58/75/6
f 170/258/1 169/278/1 129/277/1 127/215/1

g a1-Merged_3
usemtl rock_2
f 106/172/1 107/171/1 104/170/1
f 105/179/5 103/178/5 108/177/5
f 61/65/5 58/63/5 54/64/5
f 54/64/5 62/66/5 61/65/5
f 63/69/5 53/67/5 59/68/5
f 59/68/5 64/70/5 63/69/5
f 64/72/5 61/65/5 65/71/5
f 65/71/5 66/73/5 64/72/5
f 85/118/2 83/116/2 84/117/2
f 84/117/2 86/119/2 85/118/2
f 89/122/4 87/120/4 88/121/4
f 88/121/4 90/123/4 89/122/4
f 92/126/4 91/124/4 88/125/4
f 88/125/4 87/127/4 92/126/4
f 91/130/4 92/128/4 93/129/4
f 93/129/4 94/131/7 91/130/4
f 92/135/1 96/133/1 95/132/1
f 95/132/1 93/134/1 92/135/1
f 89/139/5 98/137/5 97/136/5
f 97/136/5 87/138/5 89/139/5
f 88/143/1 100/141/1 99/140/1
f 99/140/1 90/142/1 88/143/1
f 91/147/2 101/145/2 100/144/2
f 100/144/2 88/146/2 91/147/2
f 94/139/5 102/137/5 101/148/5
f 101/148/5 91/149/5 94/139/5
f 87/153/6 97/151/6 96/150/6
f 96/150/6 92/152/6 87/153/6
f 101/156/8 96/154/8 97/155/8
f 97/155/8 100/157/8 101/156/8
f 102/160/9 95/158/3 96/159/9
f 96/159/9 101/161/10 102/160/9
f 100/164/11 97/162/11 98/163/11
f 98/163/11 99/165/9 100/164/11
f 106/169/12 104/167/12 103/166/12
f 103/166/12 105/168/12 106/169/12
f 105/176/13 108/174/13 107/173/13
f 107/173/13 106/175/13 105/176/13
f 110/181/4 111/182/4 109/180/4
f 109/180/4 85/112/4 110/181/4
f 112/137/5 85/183/5 109/184/5
f 109/184/5 113/185/5 112/137/5
f 101/188/3 100/189/3 113/187/3
f 113/187/3 114/186/3 101/188/3
f 116/192/15 115/190/14 84/191/15
f 84/191/15 117/193/16 116/192/15
f 118/194/17 101/148/5 114/185/17
f 114/185/17 119/195/18 118/194/17
f 119/198/3 117/196/3 84/197/3
f 84/197/3 120/199/3 119/198/3
f 121/202/3 115/200/3 116/201/3
f 116/201/3 65/203/3 121/202/3
f 124/206/6 122/204/6 123/205/6
f 123/205/6 125/207/6 124/206/6
f 117/210/5 122/208/5 124/209/5
f 124/209/5 126/211/5 117/210/5
f 111/214/6 65/212/6 116/213/6
f 116/213/6 109/207/6 111/214/6
f 143/243/3 128/222/3 141/242/3
f 141/242/3 144/244/3 143/243/3
f 145/246/4 142/245/4 130/219/4
f 130/219/4 146/247/4 145/246/4
f 147/248/2 145/241/2 146/218/2
f 146/218/2 148/249/2 147/248/2
f 149/250/2 143/216/2 144/240/2
f 144/240/2 150/251/2 149/250/2
f 151/242/3 147/244/3 148/243/3
f 148/243/3 152/222/3 151/242/3
f 153/219/4 149/247/4 150/246/4
f 150/246/4 154/245/4 153/219/4

g a1-Merged_4
usemtl rock_1
f 188/259/1 181/260/1 186/261/1
f 184/262/1 189/263/1 186/264/1
f 77/112/4 81/110/4 80/109/4
f 80/109/4 75/111/4 77/112/4
f 187/254/1 177/252/1 181/253/1
f 181/253/1 188/255/1 187/254/1
f 189/257/1 184/256/1 180/221/1
f 180/221/1 190/258/1 189/257/1
f 191/266/1 187/265/1 190/258/1
f 190/258/1 192/267/1 191/266/1
f 194/269/1 193/268/1 192/267/1
f 192/267/1 175/215/1 194/269/1
f 176/271/1 191/266/1 195/307/1
f 195/307/1 196/308/1 176/271/1
f 193/275/3 194/222/3 197/309/3
f 197/309/3 198/310/3 193/275/3
f 202/321/5 198/285/5 197/284/5
f 197/284/5 201/322/5 202/321/5
f 205/329/5 202/327/5 201/322/5
f 201/322/5 204/328/5 205/329/5
f 203/332/1 196/330/1 195/307/1
f 195/307/1 206/331/1 203/332/1
f 209/338/5 205/329/5 204/328/5
f 204/328/5 208/337/5 209/338/5
f 207/340/1 203/332/1 206/331/1
f 206/331/1 210/339/1 207/340/1
f 211/343/4 209/341/4 208/342/4
f 208/342/4 212/344/4 211/343/4
f 213/346/4 207/345/4 210/274/4
f 210/274/4 214/347/4 213/346/4
f 216/350/4 215/348/4 214/349/4
f 214/349/4 211/351/4 216/350/4

g a1-Merged_5
usemtl grass1
f 165/281/2 142/241/2 130/279/2 164/280/2
f 141/240/2 167/283/2 162/282/2 128/216/2

